HIERARCHY
ROOT hip
{
	OFFSET 0.000000 0.000000 0.000000
	CHANNELS 6  Xposition Yposition Zposition Xrotation Zrotation Yrotation
	JOINT abdomen
	{
		OFFSET 0.000000 3.402643 0.000000
			CHANNELS 3 Xrotation Zrotation Yrotation
		JOINT chest
		{
			OFFSET 0.000000 8.438565 -0.680529
				CHANNELS 3 Xrotation Zrotation Yrotation
			JOINT neck
			{
				OFFSET 0.000000 10.207942 -0.272212
					CHANNELS 3 Xrotation Zrotation Yrotation
				JOINT head
				{
					OFFSET 0.000000 3.130431 0.000000
						CHANNELS 3 Xrotation Zrotation Yrotation
					End Site
					{
						OFFSET 0.000000 3.130435 0.000000
					}
				}
			}
			JOINT lCollar
			{
				OFFSET 3.470700 6.669187 -0.816635
					CHANNELS 3 Yrotation Zrotation Xrotation
				JOINT lShldr
				{
					OFFSET 3.198488 0.000000 0.000000
						CHANNELS 3 Zrotation Yrotation Xrotation
					JOINT lForeArm
					{
						OFFSET 10.139888 0.000000 0.000000
							CHANNELS 3 Yrotation Zrotation Xrotation
						JOINT lHand
						{
							OFFSET 8.370511 0.000000 0.000000
								CHANNELS 3 Zrotation Yrotation Xrotation
							End Site
							{
								OFFSET 4.083176 0.000000 0.000000
							}
						}
					}
				}
			}
			JOINT rCollar
			{
				OFFSET -3.470700 6.669187 -0.816635
					CHANNELS 3 Yrotation Zrotation Xrotation
				JOINT rShldr
				{
					OFFSET -3.198488 0.000000 0.000000
						CHANNELS 3 Zrotation Yrotation Xrotation
					JOINT rForeArm
					{
						OFFSET -10.139888 0.000000 0.000000
							CHANNELS 3 Yrotation Zrotation Xrotation
						JOINT rHand
						{
							OFFSET -8.370511 0.000000 0.000000
								CHANNELS 3 Zrotation Yrotation Xrotation
							End Site
							{
								OFFSET -4.083176 0.000000 0.000000
							}
						}
					}
				}
			}
		}
	}
	JOINT lThigh 
	{
		OFFSET 5.308129 -1.633274 1.361059
			CHANNELS 3 Xrotation Zrotation Yrotation
		JOINT lShin
		{
			OFFSET -2.041588 -20.007561 0.000000
				CHANNELS 3 Xrotation Zrotation Yrotation
			JOINT lFoot
			{
				OFFSET 0.000000 -19.190928 -1.224953
					CHANNELS 3 Xrotation Yrotation Zrotation
				End Site
				{
					OFFSET 0.000000 -2.449906 4.627600
				}
			}
		}
	}
	JOINT rThigh
	{
		OFFSET -5.308129 -1.633274 1.361059
			CHANNELS 3 Xrotation Zrotation Yrotation
		JOINT rShin
		{
			OFFSET 2.041588 -20.007561 0.000000
				CHANNELS 3 Xrotation Zrotation Yrotation
			JOINT rFoot
			{
				OFFSET 0.000000 -19.190928 -1.224953
					CHANNELS 3 Xrotation Yrotation Zrotation
				End Site
				{
					OFFSET 0.000000 -2.449906 4.627600
				}
			}
		}
	}
}
MOTION
Frames: 24
Frame Time: 0.033327
15.977757 41.147434 -10.309323 2.48 2.63 -37.06 13.13 -10.67 0.44 -4.10 1.22 0.22 -7.32 -12.35 -1.73 -1.22 13.19 -1.75 0.00 -0.00 -0.00 -80.98 -30.00 42.45 -131.65 35.01 44.37 -0.12 -1.39 9.96 0.00 -0.00 -0.00 73.87 13.78 16.99 148.65 -30.38 51.77 0.03 -0.70 -4.99 -34.21 13.75 -9.53 49.47 0.39 -0.26 -13.86 -3.62 -1.54 -23.30 -20.07 -2.16 65.48 -0.65 0.31 -2.65 1.45 -0.28 
15.251706 41.789093 -10.521928 2.46 2.34 -40.33 12.64 -10.36 0.26 -4.87 2.16 0.12 -5.13 -13.19 -1.77 -1.68 14.56 -1.29 0.00 -0.00 -0.00 -80.92 -28.80 40.40 -131.86 34.97 44.46 -0.09 -1.20 8.56 0.00 -0.00 -0.00 73.72 12.34 20.68 149.14 -30.21 51.96 0.02 -0.59 -4.25 -31.73 14.06 -10.72 48.58 0.36 -0.41 -10.60 0.30 -0.03 -24.66 -19.84 -2.86 62.51 -0.60 0.35 -5.12 1.74 -0.17 
14.340244 42.395756 -10.896923 2.58 1.40 -44.22 13.01 -9.37 -0.25 -4.35 2.02 -0.01 -6.00 -12.39 -1.36 -1.21 15.41 -0.77 0.00 -0.00 -0.00 -78.78 -28.71 37.38 -132.77 34.78 44.89 -0.09 -1.18 8.43 0.00 -0.00 -0.00 74.55 12.91 23.92 149.12 -30.22 51.95 0.03 -0.71 -5.08 -29.96 15.22 -11.98 49.29 0.36 -0.54 -5.91 3.75 0.79 -25.42 -18.13 -3.85 59.50 -0.55 0.40 -6.44 1.30 -0.25 
13.299107 42.887432 -11.301006 2.91 -0.04 -48.02 13.15 -7.34 -0.64 -4.20 2.52 -0.19 -5.94 -12.72 -1.14 -0.24 16.01 -0.16 0.00 -0.00 -0.00 -77.08 -27.96 35.24 -133.83 34.55 45.38 -0.07 -1.09 7.77 0.00 -0.00 -0.00 73.75 12.30 26.28 148.66 -30.37 51.77 0.03 -0.67 -4.81 -29.43 16.39 -13.57 52.01 0.39 -0.59 0.51 6.90 0.78 -25.23 -15.97 -5.19 58.76 -0.53 0.44 -4.62 0.22 -0.52 
12.381090 43.145370 -11.554074 2.51 -0.72 -51.11 13.06 -5.83 -1.74 -4.23 2.73 -0.54 -4.67 -12.39 -0.96 -0.08 15.94 0.41 0.00 -0.00 -0.00 -75.97 -26.36 33.38 -134.28 34.44 45.59 -0.07 -1.05 7.51 0.00 -0.00 -0.00 73.13 10.76 28.51 147.95 -30.61 51.50 0.01 -0.35 -2.51 -29.84 15.68 -15.29 55.35 0.45 -0.55 7.94 9.51 -0.04 -23.52 -15.05 -6.00 57.39 -0.50 0.48 -4.67 1.11 -0.26 
11.367414 43.145752 -11.780165 2.32 -1.37 -54.50 12.68 -3.89 -2.46 -3.98 3.45 -0.81 -3.96 -12.64 -0.81 0.11 15.94 0.92 0.00 -0.00 -0.00 -76.60 -24.00 32.36 -134.54 34.38 45.71 -0.09 -1.22 8.72 0.00 -0.00 -0.00 71.47 9.67 30.69 146.24 -31.17 50.81 0.00 -0.06 -0.47 -30.23 15.12 -16.90 58.51 0.52 -0.42 15.97 11.89 -1.57 -20.45 -13.19 -5.25 54.52 -0.46 0.52 -7.23 3.41 0.49 
10.432932 42.888779 -11.970127 1.83 -1.42 -58.75 12.42 -2.91 -1.92 -4.47 4.60 -0.69 -3.44 -12.05 -0.73 0.61 14.95 1.09 0.00 -0.00 -0.00 -78.48 -20.30 31.31 -134.65 34.36 45.76 -0.16 -1.57 11.29 0.00 -0.00 -0.00 70.10 7.34 32.66 144.68 -31.67 50.16 0.00 0.16 1.13 -31.35 14.32 -17.29 62.92 0.62 -0.24 23.79 13.58 -3.51 -18.09 -11.41 -2.58 51.94 -0.41 0.56 -10.96 6.22 1.75 
9.741875 42.499214 -11.988274 1.24 -1.11 -62.85 12.65 -1.03 -1.76 -4.06 4.91 -0.65 -4.83 -11.25 -0.13 1.26 13.39 1.90 0.00 -0.00 -0.00 -80.91 -18.02 29.56 -135.12 34.25 45.98 -0.16 -1.60 11.45 0.00 -0.00 -0.00 68.81 6.58 34.36 142.87 -32.21 49.40 0.01 0.38 2.76 -34.43 13.15 -17.09 68.82 0.72 -0.19 29.63 9.70 -3.35 -17.12 -10.37 -0.93 50.67 -0.38 0.63 -15.69 5.00 1.92 
9.097778 42.115280 -11.818245 0.42 -0.79 -66.94 13.58 0.30 -1.47 -4.06 4.32 -0.58 -5.83 -10.44 0.35 0.84 12.93 2.49 0.00 -0.00 -0.00 -81.82 -16.14 27.90 -135.41 34.18 46.11 -0.19 -1.73 12.40 0.00 -0.00 -0.00 69.15 7.24 34.92 140.85 -32.79 48.54 0.01 0.44 3.14 -37.61 12.33 -15.26 74.09 0.77 -0.52 25.11 -0.04 0.31 -16.56 -10.35 1.35 50.04 -0.37 0.65 -19.50 4.47 2.10 
8.519279 41.754963 -11.654499 0.02 -0.30 -70.25 14.29 1.56 -1.00 -4.15 4.25 -0.52 -6.35 -9.73 0.68 0.42 12.02 2.92 0.00 -0.00 -0.00 -82.92 -14.99 28.50 -136.14 34.01 46.44 -0.25 -1.97 14.22 0.00 -0.00 -0.00 69.70 7.71 35.27 139.02 -33.28 47.74 0.00 0.24 1.74 -41.81 12.45 -12.66 77.76 0.83 -0.62 19.07 -4.35 1.00 -16.46 -10.21 4.12 49.49 -0.36 0.65 -22.30 5.13 2.74 
7.961470 41.658661 -11.175611 -0.68 0.59 -72.89 14.53 2.50 -0.97 -4.20 4.12 -0.57 -6.56 -9.02 1.12 0.15 10.91 3.62 0.00 -0.00 -0.00 -81.59 -16.11 28.71 -136.91 33.82 46.80 -0.40 -2.51 18.16 0.00 -0.00 -0.00 70.09 7.90 36.01 137.85 -33.59 47.22 0.02 0.55 3.92 -45.32 12.00 -9.51 78.51 0.85 -0.58 13.72 -4.10 0.58 -16.22 -11.14 6.30 48.27 -0.34 0.65 -23.51 5.05 2.77 
7.333895 41.820938 -10.460124 -1.28 1.43 -75.21 14.64 3.55 -1.39 -4.37 4.30 -0.78 -6.52 -8.51 1.94 0.28 9.40 5.16 0.00 -0.00 -0.00 -80.68 -17.64 28.72 -138.95 33.30 47.71 -0.56 -2.95 21.57 0.00 -0.00 -0.00 69.81 8.08 36.66 137.81 -33.60 47.20 0.02 0.57 4.04 -47.42 11.35 -6.90 75.89 0.80 -0.56 9.17 -3.70 0.28 -15.58 -12.40 8.53 46.37 -0.32 0.63 -23.25 6.01 3.20 
6.591920 42.215435 -9.561336 -1.90 2.00 -77.60 14.97 4.12 -1.33 -4.85 4.33 -0.85 -6.53 -7.13 2.91 1.36 7.07 6.89 0.00 -0.00 -0.00 -77.90 -19.85 27.85 -141.46 32.62 48.80 -0.66 -3.18 23.31 0.00 -0.00 -0.00 69.73 7.86 37.10 137.75 -33.61 47.17 0.02 0.50 3.59 -47.44 10.64 -4.92 70.05 0.70 -0.53 5.60 -2.34 0.16 -14.22 -13.94 10.91 43.53 -0.29 0.57 -21.39 7.00 3.37 
5.967975 42.638535 -8.534607 -2.43 3.22 -81.06 14.56 4.23 -1.33 -4.84 5.32 -0.93 -6.33 -7.02 4.25 1.93 4.56 9.49 0.00 -0.00 -0.00 -72.08 -22.93 21.84 -142.60 32.29 49.29 -0.71 -3.30 24.27 0.00 -0.00 -0.00 68.28 8.75 38.30 137.49 -33.68 47.06 0.01 0.48 3.42 -47.10 10.75 -3.06 62.11 0.57 -0.49 2.45 -1.73 0.09 -14.89 -15.73 14.00 41.34 -0.27 0.48 -17.97 8.20 3.31 
5.237862 43.088005 -7.499482 -2.88 4.02 -84.79 14.48 3.64 -1.15 -4.79 5.53 -0.89 -6.07 -6.65 5.57 2.27 2.83 12.02 0.00 -0.00 -0.00 -60.09 -28.99 9.78 -135.15 34.24 46.00 -0.36 -2.37 17.11 0.00 -0.00 -0.00 68.01 9.25 39.95 137.21 -33.75 46.93 0.02 0.55 3.88 -45.12 11.01 -2.97 52.65 0.43 -0.42 1.81 -0.95 0.12 -16.04 -17.13 17.36 40.20 -0.27 0.38 -13.26 9.30 2.86 
4.401122 43.375740 -6.552162 -3.44 4.14 -87.88 14.78 1.66 -1.49 -4.62 6.26 -0.95 -5.72 -6.65 6.90 2.45 1.68 14.62 0.00 -0.00 -0.00 -43.00 -36.21 -9.09 -110.96 37.67 34.08 -0.38 -2.43 17.57 0.00 -0.00 -0.00 67.23 8.89 41.81 137.87 -33.59 47.22 0.01 0.38 2.71 -41.84 10.26 -5.96 42.67 0.30 -0.30 3.90 1.94 0.19 -17.58 -18.37 19.51 41.20 -0.30 0.30 -8.51 9.37 2.02 
3.424264 43.129555 -5.737820 -3.15 3.66 -88.76 14.67 -0.35 -2.07 -4.65 7.55 -1.12 -5.03 -7.04 7.83 3.21 1.23 16.52 0.00 -0.00 -0.00 -24.65 -42.76 -28.93 -72.74 34.43 14.86 -0.43 -2.59 18.78 0.00 -0.00 -0.00 66.96 6.87 42.30 139.71 -33.10 48.04 0.01 0.34 2.40 -39.56 9.41 -11.65 35.40 0.21 -0.15 6.93 3.22 -0.12 -19.17 -18.79 19.61 45.04 -0.36 0.23 -4.08 9.04 1.23 
2.131241 42.555172 -4.842998 -2.82 2.17 -87.22 14.92 -1.83 -3.89 -5.23 8.42 -1.68 -4.39 -6.94 8.92 4.10 -0.14 18.59 0.00 -0.00 -0.00 -14.27 -44.05 -39.15 -57.18 29.94 8.22 -0.94 -3.77 27.98 0.00 -0.00 -0.00 67.75 4.36 43.77 141.98 -32.47 49.03 0.00 0.19 1.38 -39.23 8.45 -12.63 35.04 0.21 -0.09 6.70 1.88 -0.15 -17.62 -19.34 19.36 48.19 -0.40 0.23 -1.44 9.01 0.85 
0.726110 41.715042 -4.070966 -0.67 0.98 -84.38 14.73 -0.32 -6.46 -5.30 9.35 -2.56 -5.63 -8.08 10.33 3.82 -0.48 21.46 0.00 -0.00 -0.00 -18.01 -41.51 -33.52 -69.89 33.75 13.56 -0.52 -2.84 20.64 0.00 -0.00 -0.00 67.55 3.90 46.32 145.29 -31.48 50.42 0.01 -0.44 -3.12 -42.38 9.33 -10.03 42.20 0.30 -0.15 2.41 -1.42 -0.20 -14.44 -17.39 19.42 50.01 -0.41 0.32 0.03 8.60 0.62 
-0.562244 40.888084 -3.477521 2.02 0.88 -78.60 12.39 0.59 -5.49 -5.07 9.44 -2.30 -5.77 -8.61 9.08 3.17 0.97 19.19 0.00 -0.00 -0.00 -30.87 -46.72 -19.29 -88.92 37.11 22.72 -0.42 -2.55 18.51 0.00 -0.00 -0.00 68.77 1.54 44.01 151.32 -29.44 52.80 0.05 -0.88 -6.26 -47.14 9.46 -12.18 48.06 0.40 -0.11 -1.05 -8.06 -1.23 -11.06 -14.75 16.04 51.32 -0.42 0.40 0.02 6.78 0.39 
-1.727765 40.422848 -2.760425 2.70 0.72 -67.76 10.65 -1.59 -4.75 -4.95 9.74 -2.01 -7.53 -10.52 6.41 5.32 6.42 14.31 0.00 -0.00 -0.00 -52.80 -51.31 5.77 -105.19 37.86 31.09 -0.51 -2.82 20.55 0.00 -0.00 -0.00 69.05 5.06 40.33 157.13 -27.20 54.88 0.13 -1.43 -10.22 -50.26 3.97 -15.75 50.58 0.45 0.02 -2.00 -13.07 -2.22 -5.43 -13.56 8.27 51.46 -0.42 0.46 -1.44 3.36 0.01 
-2.279848 40.277409 -2.564808 4.77 0.89 -56.59 10.53 -2.98 -1.47 -6.23 7.85 -1.00 -8.61 -11.91 2.37 4.73 12.83 6.65 0.00 -0.00 -0.00 -73.58 -50.29 33.56 -114.21 37.46 35.74 -0.36 -2.38 17.21 0.00 -0.00 -0.00 65.01 15.97 32.37 159.29 -26.31 55.59 0.21 -1.84 -13.26 -53.65 -0.41 -18.72 50.69 0.46 0.14 -0.84 -17.88 -2.59 -2.16 -9.42 0.35 51.15 -0.41 0.52 -4.39 -0.58 -0.68 
-2.343342 40.265381 -2.791013 5.87 1.67 -48.00 11.64 -4.95 4.28 -6.35 2.65 1.02 -7.24 -13.72 -2.53 -0.71 19.81 -3.15 0.00 -0.00 -0.00 -82.99 -48.17 50.78 -118.44 37.08 37.89 -0.43 -2.59 18.82 0.00 -0.00 -0.00 52.81 31.36 15.52 152.65 -28.95 53.29 0.10 -1.25 -8.95 -56.24 -3.52 -18.79 48.88 0.45 0.21 1.11 -21.77 -2.26 -2.21 -6.26 -4.72 51.43 -0.41 0.57 -8.76 -3.15 -1.50 
-2.341332 40.268040 -3.352044 7.84 2.85 -43.22 10.97 -4.77 9.41 -5.90 -2.51 2.77 -4.70 -13.64 -5.21 -4.43 20.12 -8.57 0.00 -0.00 -0.00 -84.79 -44.50 56.64 -121.33 36.74 39.34 -0.38 -2.43 17.61 0.00 -0.00 -0.00 29.01 48.90 -7.66 119.89 -36.91 38.62 0.06 -0.97 -6.94 -59.05 -4.15 -18.38 46.98 0.42 0.21 3.42 -24.06 -1.40 -4.52 -3.59 -6.93 50.80 -0.39 0.63 -12.55 -6.47 -2.95 
